<?xml version="1.0"?>
<svg xmlns="http://www.w3.org/2000/svg" height="512px" viewBox="-65 0 512 512" width="512px" class=""><g><path d="m190.847656 31.195312c-10.621094 0-19.261718 8.640626-19.261718 19.261719 0 10.625 8.640624 19.265625 19.261718 19.265625s19.261719-8.640625 19.261719-19.265625c0-10.621093-8.640625-19.261719-19.261719-19.261719zm0 23.320313c-2.238281 0-4.054687-1.820313-4.054687-4.058594 0-2.234375 1.816406-4.054687 4.054687-4.054687 2.238282 0 4.054688 1.820312 4.054688 4.054687 0 2.238281-1.816406 4.058594-4.054688 4.058594zm0 0" data-original="#000000" class="active-path" data-old_color="#F9F5F5" fill="#FDFAFA"/><path d="m102.855469 246.640625c.308593 0 .617187-.019531.929687-.054687 2.925782-.359376 5.378906-2.378907 6.296875-5.175782l21.289063-64.886718c1.3125-3.992188-.863282-8.289063-4.851563-9.597657-3.996093-1.3125-8.289062.863281-9.597656 4.855469l-16.246094 49.519531-8.621093-13.6875c-2.238282-3.554687-6.933594-4.621093-10.484376-2.386719-3.554687 2.238282-4.621093 6.933594-2.382812 10.488282l17.234375 27.375c1.402344 2.226562 3.84375 3.550781 6.433594 3.550781zm0 0" data-original="#000000" class="active-path" data-old_color="#F9F5F5" fill="#FDFAFA"/><path d="m153.550781 219.265625h139.910157c4.203124 0 7.605468-3.402344 7.605468-7.601563 0-4.199218-3.402344-7.605468-7.605468-7.605468h-139.910157c-4.203125 0-7.605469 3.40625-7.605469 7.605468 0 4.199219 3.402344 7.601563 7.605469 7.601563zm0 0" data-original="#000000" class="active-path" data-old_color="#F9F5F5" fill="#FDFAFA"/><path d="m79.1875 308.921875 17.234375 27.375c1.402344 2.226563 3.84375 3.550781 6.433594 3.550781.308593 0 .617187-.019531.929687-.054687 2.925782-.359375 5.378906-2.378907 6.296875-5.175781l21.289063-64.886719c1.3125-3.992188-.863282-8.289063-4.851563-9.597657-3.996093-1.3125-8.289062.863282-9.597656 4.855469l-16.246094 49.519531-8.621093-13.6875c-2.238282-3.554687-6.933594-4.621093-10.484376-2.382812-3.554687 2.234375-4.621093 6.929688-2.382812 10.484375zm0 0" data-original="#000000" class="active-path" data-old_color="#F9F5F5" fill="#FDFAFA"/><path d="m153.550781 312.476562h139.910157c4.203124 0 7.605468-3.40625 7.605468-7.605468 0-4.199219-3.402344-7.605469-7.605468-7.605469h-139.910157c-4.203125 0-7.605469 3.40625-7.605469 7.605469 0 4.199218 3.402344 7.605468 7.605469 7.605468zm0 0" data-original="#000000" class="active-path" data-old_color="#F9F5F5" fill="#FDFAFA"/><path d="m79.1875 402.128906 17.234375 27.375c1.402344 2.230469 3.84375 3.550782 6.433594 3.550782.308593 0 .617187-.015626.929687-.054688 2.925782-.359375 5.378906-2.375 6.296875-5.175781l21.289063-64.886719c1.3125-3.992188-.863282-8.285156-4.851563-9.597656-3.996093-1.308594-8.289062.867187-9.597656 4.855468l-16.246094 49.519532-8.621093-13.6875c-2.238282-3.554688-6.933594-4.621094-10.484376-2.382813-3.554687 2.234375-4.621093 6.929688-2.382812 10.484375zm0 0" data-original="#000000" class="active-path" data-old_color="#F9F5F5" fill="#FDFAFA"/><path d="m153.550781 405.683594h139.910157c4.203124 0 7.605468-3.40625 7.605468-7.605469s-3.402344-7.605469-7.605468-7.605469h-139.910157c-4.203125 0-7.605469 3.40625-7.605469 7.605469s3.402344 7.605469 7.605469 7.605469zm0 0" data-original="#000000" class="active-path" data-old_color="#F9F5F5" fill="#FDFAFA"/><path d="m374.09375 405.816406c4.203125 0 7.605469-3.402344 7.605469-7.601562v-268.328125c0-33.257813-27.058594-60.316407-60.316407-60.316407h-32.167968c-7.019532-7.941406-17.273438-12.964843-28.683594-12.964843h-12.847656c-.125-31.234375-25.574219-56.605469-56.835938-56.605469-31.261718 0-56.710937 25.371094-56.835937 56.605469h-12.851563c-11.40625 0-21.660156 5.023437-28.679687 12.964843h-32.167969c-33.257812 0-60.3125 27.058594-60.3125 60.316407v321.796875c0 33.257812 27.058594 60.316406 60.3125 60.316406h261.070312c33.257813 0 60.316407-27.058594 60.316407-60.316406v-17.984375c0-4.199219-3.40625-7.601563-7.605469-7.601563s-7.601562 3.402344-7.601562 7.601563v17.984375c0 24.875-20.238282 45.109375-45.109376 45.109375h-261.070312c-24.871094 0-45.105469-20.234375-45.105469-45.109375v-321.796875c0-24.875 20.234375-45.109375 45.105469-45.109375h23.929688c-.886719 3.226562-1.367188 6.613281-1.367188 10.113281v15.234375h-22.5625c-10.894531 0-19.757812 8.863281-19.757812 19.761719v11.816406c0 4.199219 3.402343 7.605469 7.605468 7.605469 4.199219 0 7.601563-3.40625 7.601563-7.605469v-11.816406c0-2.511719 2.042969-4.554688 4.550781-4.554688h24.476562c5.023438 15.289063 19.425782 26.359375 36.371094 26.359375h139.371094c16.949219 0 31.351562-11.070312 36.375-26.359375h24.476562c2.511719 0 4.554688 2.042969 4.554688 4.554688v321.796875c0 2.511718-2.042969 4.554687-4.554688 4.554687h-261.066406c-2.511718 0-4.554687-2.042969-4.554687-4.554687v-279.5625c0-4.199219-3.402344-7.601563-7.601563-7.601563-4.199218 0-7.605468 3.402344-7.605468 7.601563v279.5625c0 10.898437 8.863281 19.761718 19.761718 19.761718h261.066406c10.898438 0 19.761719-8.863281 19.761719-19.761718v-321.796875c0-10.898438-8.863281-19.761719-19.761719-19.761719h-22.5625v-15.234375c0-3.5-.484374-6.886719-1.367187-10.113281h23.929687c24.875 0 45.109376 20.234375 45.109376 45.109375v268.328125c0 4.199218 3.402343 7.601562 7.601562 7.601562zm-90.484375-292.410156c0 12.722656-10.351563 23.078125-23.078125 23.078125h-139.367188c-12.726562 0-23.078124-10.355469-23.078124-23.078125v-18.515625c0-12.726563 10.351562-23.078125 23.078124-23.078125h21.003907c2.214843 0 4.316406-.964844 5.761719-2.640625 1.445312-1.679687 2.085937-3.902344 1.757812-6.09375-.3125-2.0625-.46875-4.160156-.46875-6.238281 0-22.957032 18.675781-41.632813 41.628906-41.632813 22.957032 0 41.628906 18.675781 41.628906 41.632813 0 2.074218-.15625 4.175781-.464843 6.242187-.328125 2.191407.3125 4.414063 1.757812 6.089844 1.445313 1.679687 3.546875 2.640625 5.761719 2.640625h21.003906c12.726563 0 23.078125 10.355469 23.078125 23.078125v18.515625zm0 0" data-original="#000000" class="active-path" data-old_color="#F9F5F5" fill="#FDFAFA"/></g> </svg>
